# xmcd
#
# Track frame offsets:
#	150
#	13328
#	31619
#	44080
#	64211
#	81032
#	102556
#	118125
#	131125
#	151586
#	165273
#	180384
#
# Disc length: 2679 seconds
#
# Revision: 0
# Processed by: cddbd v1.5.2PL0 Copyright (c) Steve Scherf et al.
# Submitted via: EasyCDDAExtractor 8.2.3.1
#
DISCID=960a750c
DTITLE=The Bluebirds - Highway 80 East
DYEAR=2003
DGENRE=Blues
TTITLE0=Spår 1What You Got Down There
TTITLE1=Snake Skin Shoes
TTITLE2=Mess Up A Good Thing
TTITLE3=Got You On My Mind
TTITLE4=Road Of Love
TTITLE5=Even Now
TTITLE6=Evangeline
TTITLE7=Jigsaw Puzzle
TTITLE8=(Don't Leave Me Here) I'm Alabama Bound
TTITLE9=W Milan Street
TTITLE10=Bend Over Baby
TTITLE11=Get A Grip
EXTD=
EXTT0=
EXTT1=
EXTT2=
EXTT3=
EXTT4=
EXTT5=
EXTT6=
EXTT7=
EXTT8=
EXTT9=
EXTT10=
EXTT11=
PLAYORDER=
